<svg width="1200" height="675" viewBox="0 0 1200 675" fill="none" xmlns="http://www.w3.org/2000/svg">
  <rect width="1200" height="675" rx="28" fill="#F7FAFC"/>
  <text x="72" y="86" font-family="Inter, Segoe UI, Arial, sans-serif" font-size="38" font-weight="700" fill="#21304A">Visual Social Story</text>
  <text x="72" y="124" font-family="Inter, Segoe UI, Arial, sans-serif" font-size="20" fill="#52627A">A calm step-by-step appointment preview with gentle illustrations.</text>
  <g>
    <rect x="72" y="170" width="312" height="402" rx="24" fill="#FFFFFF" stroke="#DDE7F3" stroke-width="2"/>
    <rect x="96" y="194" width="264" height="198" rx="18" fill="#EAF3FF"/>
    <circle cx="176" cy="289" r="34" fill="#FFE1B8"/>
    <circle cx="255" cy="285" r="46" fill="#B8D7FF"/>
    <rect x="132" y="333" width="164" height="22" rx="11" fill="#8FBDF3"/>
    <text x="96" y="438" font-family="Inter, Segoe UI, Arial, sans-serif" font-size="24" font-weight="700" fill="#2563EB">1.</text>
    <text x="132" y="438" font-family="Inter, Segoe UI, Arial, sans-serif" font-size="22" fill="#334155">You arrive at the</text>
    <text x="132" y="470" font-family="Inter, Segoe UI, Arial, sans-serif" font-size="22" fill="#334155">doctor's office calmly.</text>
    <rect x="96" y="512" width="264" height="42" rx="12" fill="#EFF5FC"/>
  </g>
  <g>
    <rect x="444" y="170" width="312" height="402" rx="24" fill="#FFFFFF" stroke="#DDE7F3" stroke-width="2"/>
    <rect x="468" y="194" width="264" height="198" rx="18" fill="#FFF4E3"/>
    <rect x="515" y="307" width="170" height="40" rx="14" fill="#B8D7FF"/>
    <circle cx="564" cy="278" r="34" fill="#FFE1B8"/>
    <circle cx="635" cy="278" r="34" fill="#FFE1B8"/>
    <path d="M514 246H686" stroke="#C7D8EA" stroke-width="12" stroke-linecap="round"/>
    <text x="468" y="438" font-family="Inter, Segoe UI, Arial, sans-serif" font-size="24" font-weight="700" fill="#2563EB">2.</text>
    <text x="504" y="438" font-family="Inter, Segoe UI, Arial, sans-serif" font-size="22" fill="#334155">You wait with your</text>
    <text x="504" y="470" font-family="Inter, Segoe UI, Arial, sans-serif" font-size="22" fill="#334155">family until your turn.</text>
    <rect x="468" y="512" width="264" height="42" rx="12" fill="#EFF5FC"/>
  </g>
  <g>
    <rect x="816" y="170" width="312" height="402" rx="24" fill="#FFFFFF" stroke="#DDE7F3" stroke-width="2"/>
    <rect x="840" y="194" width="264" height="198" rx="18" fill="#EEF9F3"/>
    <circle cx="920" cy="286" r="42" fill="#B8D7FF"/>
    <circle cx="1001" cy="286" r="42" fill="#FFE1B8"/>
    <path d="M914 252V318M881 285H947" stroke="#FFFFFF" stroke-width="10" stroke-linecap="round"/>
    <path d="M977 286H1025" stroke="#8FBDF3" stroke-width="10" stroke-linecap="round"/>
    <text x="840" y="438" font-family="Inter, Segoe UI, Arial, sans-serif" font-size="24" font-weight="700" fill="#2563EB">3.</text>
    <text x="876" y="438" font-family="Inter, Segoe UI, Arial, sans-serif" font-size="22" fill="#334155">The nurse explains</text>
    <text x="876" y="470" font-family="Inter, Segoe UI, Arial, sans-serif" font-size="22" fill="#334155">each step clearly.</text>
    <rect x="840" y="512" width="264" height="42" rx="12" fill="#EFF5FC"/>
  </g>
  <rect x="72" y="606" width="1056" height="22" rx="11" fill="#EAF3FF"/>
</svg>
